<?xml version="1.0" encoding="UTF-8"?>
<!DOCTYPE svg PUBLIC "-//W3C//DTD SVG 1.1//EN" "http://www.w3.org/Graphics/SVG/1.1/DTD/svg11.dtd">
<!-- Creator: CorelDRAW X7 -->
<svg xmlns="http://www.w3.org/2000/svg" xml:space="preserve" width="0.744224in" height="1.38408in" version="1.1" style="shape-rendering:geometricPrecision; text-rendering:geometricPrecision; image-rendering:optimizeQuality; fill-rule:evenodd; clip-rule:evenodd"
viewBox="0 0 79 146"
 xmlns:xlink="http://www.w3.org/1999/xlink">
 <defs>
  <style type="text/css">
   <![CDATA[
    .str0 {stroke:#4B4B4D;stroke-width:1.75894}
    .fil1 {fill:#2F6F64;fill-rule:nonzero}
    .fil0 {fill:#3C3E37;fill-rule:nonzero}
   ]]>
  </style>
 </defs>
 <g id="Layer_x0020_1">
  <metadata id="CorelCorpID_0Corel-Layer"/>
  <path class="fil0 str0" d="M67 59l-16 -18c0,0 -1,-1 -1,-1 1,-3 2,-7 2,-12 0,-15 -8,-27 -17,-27 -10,0 -18,12 -18,27 0,2 1,8 2,12l-1 0c0,0 -1,0 -1,1l-16 18c0,0 0,0 0,1l0 84c0,1 1,1 1,1l64 0c1,0 1,0 1,-1l0 -84c0,-1 0,-1 0,-1zm-44 -31l0 0c0,-6 2,-11 4,-16 1,-2 4,-5 8,-5 3,0 6,3 7,5 3,5 4,10 4,16 0,5 -1,9 -2,12l-19 0c-1,-1 -2,-8 -2,-12zm-4 15l0 0 24 0c0,0 -1,1 -1,1 0,1 -2,3 -3,4 -2,-1 -3,-1 -5,-1 -4,0 -8,3 -8,8 0,4 4,7 8,7 4,0 8,-3 8,-7 0,-1 0,-1 0,-2 3,-2 5,-5 7,-10l0 0 15 17 0 76 -60 0 0 -76 15 -17zm21 12l0 0c0,3 -2,6 -6,6 -4,0 -6,-3 -6,-6 0,-1 0,-1 0,-2 2,2 4,2 7,2 2,0 4,0 5,-1 0,0 0,0 0,1zm-8 -6l0 0c0,-1 1,-1 2,-1 1,0 2,1 3,1 -1,0 -1,1 -2,1 -1,0 -2,-1 -3,-1zm-28 93l0 0 0 -4 60 0 0 4 -60 0z"/>
  <path class="fil1" d="M76 73c-3,-3 -8,-3 -11,0l-32 31 -13 -12c-3,-3 -8,-3 -11,0 -3,3 -3,9 0,12l18 17c2,2 4,2 6,2 2,0 4,0 5,-2l38 -37c3,-3 3,-8 0,-11z"/>
 </g>
</svg>
